<svg xmlns="http://www.w3.org/2000/svg" version="1.1" xmlns:xlink="http://www.w3.org/1999/xlink" xmlns:svgjs="http://svgjs.com/svgjs" width="1000" height="1000"><rect width="1000" height="1000" rx="200" ry="200" fill="#555555"></rect><g transform="matrix(7.897100776877289,0,0,7.897100776877289,99.97105377227359,324.10664674217645)"><svg xmlns="http://www.w3.org/2000/svg" version="1.1" xmlns:xlink="http://www.w3.org/1999/xlink" xmlns:svgjs="http://svgjs.com/svgjs" width="101.303" height="44.539"><svg xmlns="http://www.w3.org/2000/svg" xmlns:xlink="http://www.w3.org/1999/xlink" width="101.303" height="44.539" viewBox="0 0 101.303 44.539">
  <defs>
    <clipPath id="clip-path">
      <rect id="Rectangle_3" data-name="Rectangle 3" width="101.303" height="44.539" fill="none"></rect>
    </clipPath>
  </defs>
  <g id="Group_1" data-name="Group 1" clip-path="url(#clip-path)">
    <path id="Path_1" data-name="Path 1" d="M16.34,42.961,29.02,30.155c-1.766.567-4.164.884-8.769.884h-2.9C4.1,31.039,0,25.738,0,16.276v-.567C0,4.922,4.1,0,17.349,0h8.328C38.861,0,43.025,4.922,43.025,15.709v.567c0,5.236-1.137,8.769-6.624,14.446L23.658,43.907a1.885,1.885,0,0,1-1.578.631H17.034c-1.072,0-1.451-.82-.694-1.578M25.3,25.55c8.706,0,11.607-2.4,11.607-9.274v-.5C36.9,7.822,33.878,5.93,25.3,5.93h-7.57c-8.58,0-11.607,1.892-11.607,9.841v.5c0,6.876,2.9,9.274,11.607,9.274Z" transform="translate(0 0)" fill="#fff"></path>
    <path id="Path_2" data-name="Path 2" d="M106.367,30.849a1.153,1.153,0,0,1,1.261-1.325h3.659a1.134,1.134,0,0,1,1.263,1.263c.252,6.182,2.522,7.822,8.769,7.822H133.3c6.5,0,8.895-1.513,8.895-6.371v-.82c0-4.733-2.334-6.435-7.508-6.435H121.507a1.133,1.133,0,0,1-1.261-1.263V20.629a1.132,1.132,0,0,1,1.261-1.261h13c5.046,0,7.381-1.387,7.381-5.994v-.882c0-4.857-2.461-6.5-9.021-6.5H121.318c-6.247,0-8.516,1.576-8.769,7.758a1.134,1.134,0,0,1-1.263,1.263h-3.659a1.152,1.152,0,0,1-1.261-1.325C106.746,4.164,110.908,0,121.318,0h11.734C143.46,0,148,3.849,148.067,11.986v.631c0,6.182-2.839,8.327-5.426,9.588,2.65,1.261,5.741,3.6,5.741,10.032v.567c0,8.075-4.478,11.734-14.889,11.734H121.318c-10.41,0-14.572-4.164-14.951-13.69" transform="translate(-57.981 0)" fill="#fff"></path>
    <path id="Path_3" data-name="Path 3" d="M209.108,89.418V85.906a1.132,1.132,0,0,1,1.261-1.261h3.659a1.132,1.132,0,0,1,1.261,1.261v3.512a1.132,1.132,0,0,1-1.261,1.261h-3.659a1.132,1.132,0,0,1-1.261-1.261" transform="translate(-113.986 -46.14)" fill="#fff"></path>
  </g>
</svg></svg></g></svg>